<?xml version="1.0" encoding="UTF-8"?>
<!DOCTYPE svg PUBLIC "-//W3C//DTD SVG 1.0//EN" "http://www.w3.org/TR/2001/REC-SVG-20010904/DTD/svg10.dtd">
<!-- Creator: CorelDRAW X8 -->
<svg xmlns="http://www.w3.org/2000/svg" xml:space="preserve" width="254mm" height="254mm" version="1.0" shape-rendering="geometricPrecision" text-rendering="geometricPrecision" image-rendering="optimizeQuality" fill-rule="evenodd" clip-rule="evenodd"
viewBox="0 0 25400 25400"
 xmlns:xlink="http://www.w3.org/1999/xlink">
 <g id="Capa_x0020_1">
  <metadata id="CorelCorpID_0Corel-Layer"/>
  <g id="_2525353961712">
   <path fill="#367BF4" d="M16214 13032c-1515,295 -1288,-1252 -788,-1493 353,-171 870,-136 1050,324 190,483 -32,831 -262,1169zm-11214 6822c1335,1199 7502,234 9183,-1074 1187,-924 1994,-1685 2881,-3045 395,-605 712,-1746 1038,-2022 431,-366 1688,-545 1898,-928 -358,-940 -1690,-425 -2089,-1442 -365,-929 -683,-1731 -1616,-2086 -2457,-932 -2897,539 -4461,2068 -1860,-1599 -4588,-6996 -5032,-5736 -141,400 -96,3562 -33,4132 425,3851 2293,4833 1612,5833 -544,801 -3339,3564 -3381,4300z"/>
   <path fill="#F0F5FE" d="M16214 13032c230,-338 452,-686 262,-1169 -180,-460 -697,-495 -1050,-324 -500,241 -727,1788 788,1493z"/>
  </g>
 </g>
</svg>
